<?xml version="1.0" encoding="UTF-8"?>
<svg width="512px" height="512px" viewBox="0 0 512 512" version="1.1" xmlns="http://www.w3.org/2000/svg" xmlns:xlink="http://www.w3.org/1999/xlink">
    <g id="prometheus-operator-logo" stroke="none" stroke-width="1" fill="none" fill-rule="evenodd">
        <path d="M239.928018,24.8409004 C239.928029,24.9921144 239.958976,25.1366092 239.962269,25.2869229 C239.949205,26.6256601 239.884545,28.2384775 239.928018,29.4040537 C240.139475,35.0867922 244.605899,34.8535869 243.907516,43.487364 C243.228323,46.7430813 240.830535,49.7206013 238.693001,51.7902446 L238.315635,58.5835105 C228.680507,59.3818716 218.980928,60.8438043 209.292744,63.0437356 C167.604499,72.5100405 131.711655,93.9859721 104.384942,122.982299 C102.611765,121.772488 99.509612,119.546811 98.5871698,118.865168 C95.7206468,119.25231 92.8235283,120.136856 89.0500969,117.938814 C81.8651433,113.101866 84.4731667,109.525892 80.1624865,105.817466 C79.1835629,104.975299 77.689621,103.836248 76.5946607,102.969784 C73.2245692,100.282593 69.24966,98.8811766 65.4108989,98.7497248 C60.4753443,98.5807138 55.7240432,100.510594 52.6147543,104.41078 C47.0871382,111.344445 48.8568786,121.942127 56.5599463,128.084282 C56.6381092,128.146533 56.7213438,128.194929 56.8000885,128.255829 C57.858602,129.113971 59.1548096,130.21353 60.1277722,130.931964 C64.7021311,134.309713 67.6756584,130.91421 73.9897551,136.843306 C76.4554192,139.471869 76.8863686,144.103641 77.2145208,146.106851 L82.3604234,150.704313 C54.8130534,192.165117 42.0639053,243.377591 49.5982314,295.558701 L42.8742519,297.514338 C41.1020853,299.803034 38.5978997,303.404294 35.9786874,304.479151 C27.7176556,307.081408 24.2038812,303.561119 18.617138,304.619551 C17.3875225,304.852504 15.6742635,305.2989 14.3288857,305.614525 C14.2821198,305.624406 14.2384276,305.638239 14.1916617,305.648779 C14.1183291,305.665797 14.0219868,305.701369 13.9515195,305.717398 C4.48839392,308.004096 -1.59074221,316.703001 0.366336517,325.27377 C2.32387631,333.846547 11.5672678,339.059867 21.0871712,337.007592 C21.155893,336.991892 21.2556824,336.989257 21.3273134,336.973338 C21.4347872,336.948745 21.529406,336.896595 21.6360675,336.870465 C22.9631341,336.579125 24.626202,336.254981 25.7870957,335.94411 C31.2797251,334.473328 32.7928714,329.255858 41.3647322,328.01547 C44.9448314,327.735044 48.7167698,330.224624 50.593051,331.274866 L57.5914786,330.074036 C73.6962932,380.009695 107.446806,420.370972 150.18342,445.696794 L147.267409,452.695916 C148.318458,455.413684 149.477716,459.090864 148.694781,461.774816 C145.578499,469.856689 139.870372,472.383084 137.21457,477.411353 C136.579058,478.614532 135.769677,480.462773 135.156209,481.73434 C131.029782,490.56406 134.056616,500.733746 141.983106,504.550107 C149.959393,508.390435 159.860077,504.340034 164.144794,495.492419 C164.151381,495.479903 164.173007,495.470681 164.179045,495.458165 C164.183436,495.448283 164.174654,495.433462 164.179045,495.42391 C164.789341,494.169503 165.653962,492.520652 166.168794,491.341089 C168.443563,486.129328 165.719238,478.070969 171.56708,471.093716 C173.168408,469.183115 175.779102,468.448323 178.48583,467.723554 L182.122268,461.136145 C219.379416,475.438289 261.082821,479.276179 302.742226,469.816429 C312.245784,467.658426 321.420552,464.865497 330.289959,461.513548 C331.311982,463.326546 333.211327,466.811692 333.72056,467.689244 C336.471179,468.584232 339.473477,469.046404 341.919699,472.664111 C346.29483,480.139701 344.825922,485.854962 347.100966,491.066613 C347.619497,492.254488 348.479793,493.926493 349.090715,495.183744 C353.366419,504.060103 363.298478,508.124347 371.286708,504.275741 C379.212222,500.45735 382.242393,490.288585 378.113606,481.459975 C377.50006,480.188451 376.656506,478.340134 376.020939,477.136987 C373.364873,472.108862 366.786424,470.247136 363.669714,462.165427 C362.366513,457.997167 363.88958,455.404835 364.904731,452.696026 C364.296795,451.999111 362.995878,448.062783 362.228861,446.211545 C406.642694,419.984697 439.402098,378.118274 454.786497,329.765361 C456.86396,330.091899 460.474753,330.730812 461.647701,330.966191 C464.062339,329.373465 466.282515,327.295335 470.635877,327.638177 C479.207793,328.878114 480.720819,334.130629 486.213514,335.601126 C487.374419,335.911931 489.037453,336.201897 490.364542,336.493171 C490.471247,336.519301 490.565767,336.571561 490.673296,336.596044 C490.744982,336.612073 490.844716,336.614599 490.913438,336.630299 C500.433891,338.680026 509.678929,333.469758 511.634273,324.896476 C513.589156,316.325202 507.51283,307.624277 498.04909,305.340104 C496.672535,305.027059 494.720308,304.495401 493.383472,304.242203 C487.796673,303.184067 484.283086,306.70362 476.021922,304.101802 C472.653609,302.794992 470.25738,298.786597 469.092052,297.136989 L462.608214,295.249971 C465.969941,270.926598 465.063482,245.61237 459.246225,220.28388 C453.374802,194.71956 442.998488,171.338506 429.159847,150.738678 C430.823058,149.226549 433.963996,146.444883 434.854646,145.626574 C435.114998,142.745493 434.891312,139.724771 437.873575,136.534576 C444.187354,130.60515 447.195681,134.001225 451.769864,130.623234 C452.804259,129.859358 454.216734,128.649658 455.303384,127.775552 C463.004816,121.631333 464.777971,111.034288 459.248576,104.10205 C453.719182,97.1698115 443.004408,96.5168346 435.302976,102.661054 C434.206764,103.529329 432.719288,104.662002 431.73515,105.508736 C427.424668,109.217404 429.997935,112.827061 422.813234,117.664393 C419.699883,119.477094 415.139708,118.849885 413.07027,118.727985 L406.963799,123.085282 C372.143136,86.5684504 324.73402,63.2216944 273.685139,58.6864387 C273.54236,56.546936 273.355307,52.6796327 273.307773,51.5157692 C271.217894,49.5157768 268.69329,47.8083093 268.058952,43.487364 C267.36057,34.8535869 271.8613,35.0867922 272.072756,29.4040537 C272.12084,28.1122298 272.043665,26.2376947 272.038505,24.8409004 C272.037451,14.9882329 264.850116,7 255.983289,7 C247.116407,7 239.926964,14.9882329 239.928018,24.8409004 Z M239.693043,100.566038 L259,178.924517 L235.928253,236.661443 C235.607923,244.233281 210.646022,198.422135 208.303186,196.705006 L208.165747,196.773957 L139,147.576896 C160.257448,126.603268 187.447398,111.103757 218.782844,103.964925 C224.437198,102.676746 230.089063,101.716869 235.720145,101.025432 C235.789518,101.016914 239.623677,100.574475 239.693043,100.566038 Z M275.957413,100.889694 C275.974684,100.891809 277.034542,101.004232 277.051812,101.006351 C313.485617,105.478431 347.178527,121.90549 373,147.075535 L304.526391,195.40032 L304.286733,195.298136 C298.20907,199.716687 289.646057,198.620362 284.908702,192.708091 C282.968083,190.286034 281.949853,187.438151 281.827389,184.563081 L281.758916,184.529056 C275.019554,147.057341 271.006377,119.044324 269.719384,100.490005 C269.717154,100.457799 271.796497,100.591029 275.957413,100.889694 Z M114.373964,179 L177.216854,235.578171 L177.148473,235.922321 C182.820739,240.885749 183.657196,249.498813 178.9264,255.47001 C176.988514,257.916004 174.394512,259.556567 171.609545,260.322517 L171.541164,260.597837 L90.9873823,284 C86.8874492,246.264513 95.7232882,209.582619 114.373964,179 Z M417.686029,229.843195 C421.881042,248.121374 422.93384,266.36687 421.20389,284 L339.534316,260.459566 L339.465339,260.114398 C332.152049,258.114039 327.657541,250.668822 329.360108,243.201183 C330.057644,240.142037 331.680209,237.554086 333.878147,235.642012 L333.843713,235.469428 L396.889313,179 C406.307857,194.278567 413.440094,211.343192 417.686029,229.843195 Z M243.095858,240 L268.938462,240 L285,259.97561 L279.23432,284.902439 L256.03432,296 L232.76568,284.868293 L227,259.941463 L243.095858,240 Z M328.621002,308.254637 L328.757633,308.083634 L412,322.174288 C399.817444,356.443963 376.50569,386.132375 345.358286,406 L313.045082,327.85159 L313.1475,327.714788 C310.17921,320.80901 313.149686,312.710775 319.979044,309.417458 C321.727537,308.574306 323.554281,308.107426 325.375964,308.015232 C326.469033,307.959964 327.557282,308.058571 328.621002,308.254637 Z M185.159637,310.001283 C191.492153,310.090116 197.172146,314.489484 198.64353,320.941709 C199.332369,323.962323 198.997108,326.955224 197.860375,329.598662 L198.098727,329.905404 L182.961868,366.520691 L333.219868,376.649015 C341.313514,396.222371 345.360336,406.009048 345.360336,406.009048 C319.588712,422.281015 289.731674,434 257,434 C223.510824,434 192.360641,423.977865 166.219444,407.006077 C166.095169,406.925393 165.973587,406.843339 165.8547,406.759916 L166.227707,407 C136.430036,387.8608 112.696085,359.203772 100,324.04327 L182.265367,310.069448 L182.401568,310.239861 C183.321753,310.070365 184.254991,309.988577 185.159637,310.001283 Z" id="path3059" fill="#2F6DE6" fill-rule="nonzero"></path>
        <path d="M339.042798,226.12447 L339.976621,215.041249 C340.036022,214.293105 340.081394,213.688243 340.103016,213.333891 L340.156381,212.364701 C340.231517,210.806962 340.235423,209.518403 340.135057,208.218363 C339.998027,206.443418 339.70296,204.800364 338.950827,202.871307 C338.147313,200.810467 336.957552,198.836979 335.062654,196.999773 C332.116161,194.142989 328.116658,192.420571 323.770413,192.420571 C317.56278,192.420571 314.571821,194.53646 311.294047,198.058413 L310.936403,198.451861 L310.587648,198.853696 L310.3,199.199 L310.236593,198.482197 C308.57088,180.57825 302.616661,160.847868 293.525508,140.188232 C288.51781,128.808244 282.775321,117.788993 277.288336,108.684749 L276.541375,107.454973 C274.439877,104.022457 272.470848,101.039563 270.784291,98.7332693 C269.713658,97.2692252 268.727378,96.0329856 267.757758,94.9800419 L267.284118,94.4693497 C263.636474,90.5686262 261.37954,89 254.945608,89 C250.417845,89 246.206315,90.8975973 243.223323,94.0821686 C241.297583,96.1380427 240.195358,98.2981523 239.535651,100.512675 C238.958227,102.450989 238.824731,103.980677 238.85078,105.580422 C238.867001,106.576621 238.950634,107.418638 239.089516,108.348809 L239.163504,108.822362 C239.318093,109.774054 239.507895,110.73974 239.870984,112.469655 L241.061227,118.142219 C241.666514,121.075202 242.010833,122.88805 242.509494,125.713483 C245.999671,145.488971 246.903708,164.241636 243.881268,181.628908 L243.735642,182.448108 C241.261478,196.062828 236.43221,207.7452 228.956932,217.270583 L228.547,217.786 L228.287668,217.201885 C226.485253,213.170145 224.432457,209.094551 222.160287,204.995615 C217.898146,197.306822 213.055893,190.045515 208.641224,184.598852 C206.316115,181.730216 204.130087,179.382673 202.032583,177.608577 C200.266038,176.114409 198.491658,174.921014 196.260362,174.004516 C194.033325,173.089768 191.608045,172.562927 188.79895,172.712994 L188.401135,172.739014 C185.090004,172.995343 181.884854,174.238118 179.24147,176.397281 L179.076,176.535 L178.967064,176.62394 C176.202923,178.920792 174.387364,181.937178 173.511283,185.183817 C172.89415,187.470831 172.795847,189.544621 172.978738,191.613543 C173.140581,193.444356 173.490485,195.03162 174.05657,196.986555 L174.366815,198.006124 C174.868998,199.582873 176.44933,204.504317 177.050272,206.585561 L177.09681,206.747964 C179.2246,214.235936 180.293723,221.374817 180.038879,229.276459 L180.012372,229.985833 C179.590062,239.926514 177.012522,250.265187 171.715282,261.214369 L171.383,261.892 L171.48077,261.704705 C154.42616,294.493211 150.898148,333.906193 163.727998,363.847818 L164.218636,364.971135 L164.321986,365.187051 C184.356442,407.042386 212.825761,428.479204 251.434824,429.944465 L252.720978,429.985848 L254.076291,430.001396 C259.025199,430.021642 263.740322,429.786014 268.403094,429.238621 L269.425,429.112 L269.240953,429.133941 C285.90468,427.33484 302.510789,422.356849 316.544322,414.280942 L317.196654,413.902255 C333.884334,404.130156 346.289836,390.318017 352.615547,372.673629 L352.725,372.36 L352.598686,372.680379 C359.318958,355.902458 362.895072,341.477332 362.997814,327.149777 C363.122858,309.712188 357.884514,293.517233 346.650847,278.700723 L346.151352,278.047948 C342.179222,272.925258 339.636671,264.396886 338.714738,253.137035 C338.047668,244.989903 338.229812,236.575965 339.042798,226.12447 Z" id="Path" fill="#FFFFFF" fill-rule="nonzero"></path>
        <path d="M254.945608,105 C258.016949,105 302.897145,176.889489 293.357761,222.392277 C288.484058,245.639801 287.289149,264.679609 294.301626,284.423605 L294.565109,285.155195 L300.91427,296.465227 C299.512626,292.462026 298.688052,287.761045 298.440547,282.362286 C297.221428,255.769884 320.942234,208.420571 323.770413,208.420571 C326.617999,208.420571 313.92978,262.60433 333.487627,287.827011 C353.300657,313.484557 348.283455,340.422832 337.74584,366.731181 C327.080633,397.415009 293.999891,410.367858 267.523492,413.226385 C262.568893,413.864662 257.74129,414.050777 253.045451,413.988738 C220.599684,413.101116 196.724599,395.822896 178.753893,358.27908 C167.259343,332.296431 171.006594,297.289618 185.675426,269.087912 C208.759026,222.392277 185.675426,191.146985 189.295086,188.856484 C192.117831,185.57361 225.818307,231.377308 220.271285,258.796537 L220.091108,259.621726 L222.313821,255.682901 L223.123354,254.062445 C226.948095,246.468203 231.44869,238.470066 237.423857,231.989698 C280.137393,185.664723 253.045451,105 254.945608,105 Z" id="Path" fill="#E6522C" fill-rule="nonzero"></path>
    </g>
</svg>